<mxfile host="app.diagrams.net" modified="2024-07-12T07:33:14.261Z" agent="Mozilla/5.0 (Windows NT 10.0; Win64; x64) AppleWebKit/537.36 (KHTML, like Gecko) Chrome/126.0.0.0 Safari/537.36 Edg/126.0.0.0" etag="7EmyrDt1JAF2Um2XRrTS" version="24.6.4" type="github">
  <diagram name="第 1 页" id="hvp_vkDn-x4WIJyhgftc">
    <mxGraphModel dx="994" dy="1603" grid="1" gridSize="10" guides="1" tooltips="1" connect="1" arrows="1" fold="1" page="1" pageScale="1" pageWidth="827" pageHeight="1169" math="0" shadow="0">
      <root>
        <mxCell id="0" />
        <mxCell id="1" parent="0" />
        <mxCell id="4NAa_2LbM7OXufNybj1a-1" value="his=12&lt;div&gt;pred=12&lt;/div&gt;&lt;div&gt;batch=64&lt;/div&gt;" style="shape=note;whiteSpace=wrap;html=1;backgroundOutline=1;fontColor=#000000;darkOpacity=0.05;fillColor=#FFF9B2;strokeColor=none;fillStyle=solid;direction=west;gradientDirection=north;gradientColor=#FFF2A1;shadow=1;size=20;pointerEvents=1;" vertex="1" parent="1">
          <mxGeometry x="130" y="-60" width="140" height="160" as="geometry" />
        </mxCell>
        <mxCell id="4NAa_2LbM7OXufNybj1a-2" value="x(64,12,307,2)&lt;div&gt;0是流量，1是tod&lt;/div&gt;" style="text;strokeColor=none;align=center;fillColor=none;html=1;verticalAlign=middle;whiteSpace=wrap;rounded=0;" vertex="1" parent="1">
          <mxGeometry x="280" y="-30" width="190" height="30" as="geometry" />
        </mxCell>
        <mxCell id="4NAa_2LbM7OXufNybj1a-3" value="y(64,12,307,2)&lt;div&gt;0是流量，1是tod&lt;br&gt;&lt;/div&gt;" style="text;strokeColor=none;align=center;fillColor=none;html=1;verticalAlign=middle;whiteSpace=wrap;rounded=0;" vertex="1" parent="1">
          <mxGeometry x="450" y="-30" width="120" height="30" as="geometry" />
        </mxCell>
        <mxCell id="4NAa_2LbM7OXufNybj1a-5" value="" style="endArrow=classic;html=1;rounded=0;" edge="1" parent="1">
          <mxGeometry width="50" height="50" relative="1" as="geometry">
            <mxPoint x="440" as="sourcePoint" />
            <mxPoint x="440" y="70" as="targetPoint" />
          </mxGeometry>
        </mxCell>
        <mxCell id="4NAa_2LbM7OXufNybj1a-6" value="prepare_x_y(x, y)" style="text;whiteSpace=wrap;html=1;" vertex="1" parent="1">
          <mxGeometry x="390" y="20" width="130" height="40" as="geometry" />
        </mxCell>
        <mxCell id="4NAa_2LbM7OXufNybj1a-7" value="x(64,12,307,1)&lt;div&gt;1是流量&lt;/div&gt;" style="text;strokeColor=none;align=center;fillColor=none;html=1;verticalAlign=middle;whiteSpace=wrap;rounded=0;" vertex="1" parent="1">
          <mxGeometry x="280" y="80" width="190" height="30" as="geometry" />
        </mxCell>
        <mxCell id="4NAa_2LbM7OXufNybj1a-8" value="y(64,12,307,1)&lt;div&gt;1是标签&lt;/div&gt;" style="text;strokeColor=none;align=center;fillColor=none;html=1;verticalAlign=middle;whiteSpace=wrap;rounded=0;" vertex="1" parent="1">
          <mxGeometry x="414" y="80" width="190" height="30" as="geometry" />
        </mxCell>
        <mxCell id="4NAa_2LbM7OXufNybj1a-9" value="yconv(64,12,307,1)&lt;div&gt;1是y对应的tod&lt;/div&gt;" style="text;strokeColor=none;align=center;fillColor=none;html=1;verticalAlign=middle;whiteSpace=wrap;rounded=0;" vertex="1" parent="1">
          <mxGeometry x="520" y="80" width="190" height="30" as="geometry" />
        </mxCell>
        <mxCell id="4NAa_2LbM7OXufNybj1a-10" value="node_embeddings1（307，64）" style="text;whiteSpace=wrap;html=1;" vertex="1" parent="1">
          <mxGeometry x="800" width="203" height="40" as="geometry" />
        </mxCell>
        <mxCell id="4NAa_2LbM7OXufNybj1a-11" value="" style="endArrow=classic;html=1;rounded=0;" edge="1" parent="1">
          <mxGeometry width="50" height="50" relative="1" as="geometry">
            <mxPoint x="880" y="-60" as="sourcePoint" />
            <mxPoint x="880" as="targetPoint" />
          </mxGeometry>
        </mxCell>
        <UserObject label="torch.matmul(self.memory[&#39;We1&#39;], self.memory[&#39;Memory&#39;])" id="4NAa_2LbM7OXufNybj1a-12">
          <mxCell style="text;whiteSpace=wrap;html=1;" vertex="1" parent="1">
            <mxGeometry x="890" y="-50" width="340" height="40" as="geometry" />
          </mxCell>
        </UserObject>
        <mxCell id="4NAa_2LbM7OXufNybj1a-13" value="node_embeddings2（307，64）" style="text;whiteSpace=wrap;html=1;" vertex="1" parent="1">
          <mxGeometry x="1140" width="203" height="40" as="geometry" />
        </mxCell>
        <mxCell id="4NAa_2LbM7OXufNybj1a-14" value="" style="endArrow=classic;html=1;rounded=0;" edge="1" parent="1">
          <mxGeometry width="50" height="50" relative="1" as="geometry">
            <mxPoint x="1220" y="-60" as="sourcePoint" />
            <mxPoint x="1220" as="targetPoint" />
          </mxGeometry>
        </mxCell>
        <UserObject label="torch.matmul(self.memory[&#39;We2&#39;], self.memory[&#39;Memory&#39;])" id="4NAa_2LbM7OXufNybj1a-15">
          <mxCell style="text;whiteSpace=wrap;html=1;" vertex="1" parent="1">
            <mxGeometry x="1230" y="-50" width="340" height="40" as="geometry" />
          </mxCell>
        </UserObject>
        <mxCell id="4NAa_2LbM7OXufNybj1a-17" value="1&lt;span style=&quot;white-space: pre;&quot;&gt;&#x9;&lt;/span&gt;计算节点嵌入" style="rounded=0;whiteSpace=wrap;html=1;" vertex="1" parent="1">
          <mxGeometry x="650" y="-45" width="120" height="60" as="geometry" />
        </mxCell>
        <mxCell id="4NAa_2LbM7OXufNybj1a-21" value="2&lt;span style=&quot;white-space: pre;&quot;&gt;&#x9;&lt;/span&gt;计算邻接矩阵" style="rounded=0;whiteSpace=wrap;html=1;" vertex="1" parent="1">
          <mxGeometry x="650" y="120" width="120" height="60" as="geometry" />
        </mxCell>
        <UserObject label="F.softmax(F.relu(torch.mm(node_embeddings1, node_embeddings2.T)), dim=-1)" id="4NAa_2LbM7OXufNybj1a-22">
          <mxCell style="text;whiteSpace=wrap;html=1;" vertex="1" parent="1">
            <mxGeometry x="770" y="120" width="460" height="40" as="geometry" />
          </mxCell>
        </UserObject>
        <mxCell id="4NAa_2LbM7OXufNybj1a-23" value="" style="endArrow=classic;html=1;rounded=0;" edge="1" parent="1">
          <mxGeometry width="50" height="50" relative="1" as="geometry">
            <mxPoint x="890" y="150" as="sourcePoint" />
            <mxPoint x="890" y="210" as="targetPoint" />
          </mxGeometry>
        </mxCell>
        <mxCell id="4NAa_2LbM7OXufNybj1a-24" value="g1（307，307）" style="text;whiteSpace=wrap;html=1;" vertex="1" parent="1">
          <mxGeometry x="840" y="210" width="103.5" height="40" as="geometry" />
        </mxCell>
        <UserObject label="F.softmax(F.relu(torch.mm(node_embeddings2, node_embeddings1.T)), dim=-1)" id="4NAa_2LbM7OXufNybj1a-25">
          <mxCell style="text;whiteSpace=wrap;html=1;" vertex="1" parent="1">
            <mxGeometry x="1090" y="140" width="460" height="20" as="geometry" />
          </mxCell>
        </UserObject>
        <mxCell id="4NAa_2LbM7OXufNybj1a-26" value="" style="endArrow=classic;html=1;rounded=0;" edge="1" parent="1">
          <mxGeometry width="50" height="50" relative="1" as="geometry">
            <mxPoint x="1250" y="160" as="sourcePoint" />
            <mxPoint x="1250" y="220" as="targetPoint" />
          </mxGeometry>
        </mxCell>
        <mxCell id="4NAa_2LbM7OXufNybj1a-27" value="g2（307，307）" style="text;whiteSpace=wrap;html=1;" vertex="1" parent="1">
          <mxGeometry x="1200" y="220" width="103.5" height="40" as="geometry" />
        </mxCell>
        <mxCell id="4NAa_2LbM7OXufNybj1a-28" value="supports = [g1, g2]" style="text;whiteSpace=wrap;html=1;" vertex="1" parent="1">
          <mxGeometry x="790" y="280" width="130" height="40" as="geometry" />
        </mxCell>
        <mxCell id="4NAa_2LbM7OXufNybj1a-29" value="3&lt;span style=&quot;white-space: pre;&quot;&gt;&#x9;&lt;/span&gt;构建支持矩阵" style="rounded=0;whiteSpace=wrap;html=1;" vertex="1" parent="1">
          <mxGeometry x="650" y="260" width="120" height="60" as="geometry" />
        </mxCell>
        <mxCell id="4NAa_2LbM7OXufNybj1a-30" value="init_state&lt;span style=&quot;white-space: pre;&quot;&gt;&#x9;&lt;/span&gt;list:1&lt;div&gt;(64,307,64)&lt;/div&gt;" style="text;whiteSpace=wrap;html=1;" vertex="1" parent="1">
          <mxGeometry x="790" y="330" width="160" height="40" as="geometry" />
        </mxCell>
        <mxCell id="4NAa_2LbM7OXufNybj1a-31" value="x(64,12,307,1)&lt;div&gt;1是流量&lt;/div&gt;" style="text;strokeColor=none;align=center;fillColor=none;html=1;verticalAlign=middle;whiteSpace=wrap;rounded=0;" vertex="1" parent="1">
          <mxGeometry x="730" y="400" width="190" height="30" as="geometry" />
        </mxCell>
        <mxCell id="4NAa_2LbM7OXufNybj1a-32" value="init_state&lt;span style=&quot;white-space: pre;&quot;&gt;&#x9;&lt;/span&gt;list:1&lt;div&gt;(64,307,64)&lt;/div&gt;" style="text;whiteSpace=wrap;html=1;" vertex="1" parent="1">
          <mxGeometry x="920" y="390" width="120" height="40" as="geometry" />
        </mxCell>
        <mxCell id="4NAa_2LbM7OXufNybj1a-33" value="supports = [g1, g2]" style="text;whiteSpace=wrap;html=1;" vertex="1" parent="1">
          <mxGeometry x="1080" y="395" width="130" height="40" as="geometry" />
        </mxCell>
        <mxCell id="4NAa_2LbM7OXufNybj1a-34" value="" style="shape=partialRectangle;whiteSpace=wrap;html=1;bottom=1;right=1;left=1;top=0;fillColor=none;routingCenterX=-0.5;" vertex="1" parent="1">
          <mxGeometry x="827" y="430" width="300" height="60" as="geometry" />
        </mxCell>
        <mxCell id="4NAa_2LbM7OXufNybj1a-38" value="" style="endArrow=classic;html=1;rounded=0;" edge="1" parent="1">
          <mxGeometry width="50" height="50" relative="1" as="geometry">
            <mxPoint x="960" y="430" as="sourcePoint" />
            <mxPoint x="960" y="490" as="targetPoint" />
          </mxGeometry>
        </mxCell>
        <mxCell id="4NAa_2LbM7OXufNybj1a-39" value="self.encoder(x, init_state, supports)" style="text;whiteSpace=wrap;html=1;" vertex="1" parent="1">
          <mxGeometry x="860" y="450" width="220" height="40" as="geometry" />
        </mxCell>
        <mxCell id="4NAa_2LbM7OXufNybj1a-40" value="h_en(64,12,307,64)&amp;nbsp; &amp;nbsp;表示每个时间步的隐藏状态&lt;div&gt;state_en list:1&lt;/div&gt;&lt;div&gt;(64,307,64)&lt;/div&gt;" style="text;whiteSpace=wrap;html=1;" vertex="1" parent="1">
          <mxGeometry x="837" y="540" width="280" height="60" as="geometry" />
        </mxCell>
        <mxCell id="4NAa_2LbM7OXufNybj1a-41" value="" style="endArrow=classic;html=1;rounded=0;" edge="1" parent="1">
          <mxGeometry width="50" height="50" relative="1" as="geometry">
            <mxPoint x="960" y="500" as="sourcePoint" />
            <mxPoint x="960" y="540" as="targetPoint" />
          </mxGeometry>
        </mxCell>
        <mxCell id="4NAa_2LbM7OXufNybj1a-42" value="h_t = h_en[:, -1, :, :]&lt;span style=&quot;white-space: pre;&quot;&gt;&#x9;&lt;/span&gt;从 h_en 中提取最后一个时间步的隐藏状态" style="text;whiteSpace=wrap;html=1;" vertex="1" parent="1">
          <mxGeometry x="790" y="610" width="280" height="40" as="geometry" />
        </mxCell>
        <mxCell id="4NAa_2LbM7OXufNybj1a-43" value="" style="endArrow=classic;html=1;rounded=0;" edge="1" parent="1">
          <mxGeometry width="50" height="50" relative="1" as="geometry">
            <mxPoint x="920" y="640" as="sourcePoint" />
            <mxPoint x="920" y="700" as="targetPoint" />
          </mxGeometry>
        </mxCell>
        <mxCell id="4NAa_2LbM7OXufNybj1a-44" value="self.query_memory(h_t)" style="text;whiteSpace=wrap;html=1;" vertex="1" parent="1">
          <mxGeometry x="930" y="650" width="160" height="40" as="geometry" />
        </mxCell>
        <mxCell id="4NAa_2LbM7OXufNybj1a-45" value="h_att（64，307，64）&lt;div&gt;query（64，307，64）&lt;/div&gt;&lt;div&gt;pos（64，307，64）&lt;/div&gt;&lt;div&gt;neg（64，307，64）&lt;/div&gt;" style="text;whiteSpace=wrap;html=1;" vertex="1" parent="1">
          <mxGeometry x="870" y="700" width="150" height="80" as="geometry" />
        </mxCell>
        <mxCell id="4NAa_2LbM7OXufNybj1a-50" value="" style="endArrow=classic;html=1;rounded=0;" edge="1" parent="1">
          <mxGeometry width="50" height="50" relative="1" as="geometry">
            <mxPoint x="919.6" y="810" as="sourcePoint" />
            <mxPoint x="919.6" y="850" as="targetPoint" />
          </mxGeometry>
        </mxCell>
        <UserObject label="torch.cat([h_t, h_att], dim=-1)" id="4NAa_2LbM7OXufNybj1a-51">
          <mxCell style="text;whiteSpace=wrap;html=1;" vertex="1" parent="1">
            <mxGeometry x="930" y="820" width="190" height="40" as="geometry" />
          </mxCell>
        </UserObject>
        <mxCell id="4NAa_2LbM7OXufNybj1a-52" value="" style="endArrow=classic;html=1;rounded=0;" edge="1" parent="1">
          <mxGeometry width="50" height="50" relative="1" as="geometry">
            <mxPoint x="799.4300000000001" y="650" as="sourcePoint" />
            <mxPoint x="910" y="850" as="targetPoint" />
            <Array as="points">
              <mxPoint x="800" y="850" />
            </Array>
          </mxGeometry>
        </mxCell>
        <mxCell id="4NAa_2LbM7OXufNybj1a-55" value="h_att（64，307，64）" style="text;whiteSpace=wrap;html=1;" vertex="1" parent="1">
          <mxGeometry x="860" y="790" width="150" height="40" as="geometry" />
        </mxCell>
        <mxCell id="4NAa_2LbM7OXufNybj1a-56" value="h_t（64，307，128）" style="text;whiteSpace=wrap;html=1;" vertex="1" parent="1">
          <mxGeometry x="870" y="860" width="135" height="40" as="geometry" />
        </mxCell>
        <mxCell id="4NAa_2LbM7OXufNybj1a-57" value="ht_list = [h_t]*self.num_layers&lt;div&gt;创建隐藏状态列表num_layers=1&lt;br&gt;&lt;/div&gt;" style="text;whiteSpace=wrap;html=1;" vertex="1" parent="1">
          <mxGeometry x="870" y="900" width="190" height="50" as="geometry" />
        </mxCell>
        <mxCell id="4NAa_2LbM7OXufNybj1a-58" value="go(64,307,1)初始化输出状态&lt;div&gt;out = [] 初始化输出状态列表&lt;br&gt;&lt;/div&gt;" style="text;whiteSpace=wrap;html=1;" vertex="1" parent="1">
          <mxGeometry x="866.75" y="950" width="183.25" height="40" as="geometry" />
        </mxCell>
        <UserObject label="for t in range(self.horizon):&lt;br&gt;            &lt;span style=&quot;white-space: pre;&quot;&gt;&#x9;&lt;/span&gt;h_de, ht_list = self.decoder(torch.cat([go, y_cov[:, t, ...]], dim=-1), ht_list, supports)&lt;br&gt;            &lt;span style=&quot;white-space: pre;&quot;&gt;&#x9;&lt;/span&gt;go = self.proj(h_de)&lt;br&gt;            &lt;span style=&quot;white-space: pre;&quot;&gt;&#x9;&lt;/span&gt;out.append(go)&lt;br&gt;            &lt;span style=&quot;white-space: pre;&quot;&gt;&#x9;&lt;/span&gt;if self.training and self.use_curriculum_learning:&lt;br&gt;                &lt;span style=&quot;white-space: pre;&quot;&gt;&#x9;&lt;/span&gt;&lt;span style=&quot;white-space: pre;&quot;&gt;&#x9;&lt;/span&gt;c = np.random.uniform(0, 1)&lt;br&gt;                &lt;span style=&quot;white-space: pre;&quot;&gt;&#x9;&lt;span style=&quot;white-space: pre;&quot;&gt;&#x9;&lt;/span&gt;&lt;/span&gt;if c &amp;lt; self.compute_sampling_threshold(batches_seen):&lt;br&gt;                    &lt;span style=&quot;white-space: pre;&quot;&gt;&#x9;&lt;/span&gt;&lt;span style=&quot;white-space: pre;&quot;&gt;&#x9;&lt;span style=&quot;white-space: pre;&quot;&gt;&#x9;&lt;/span&gt;&lt;/span&gt;go = labels[:, t, ...]" id="4NAa_2LbM7OXufNybj1a-59">
          <mxCell style="text;whiteSpace=wrap;html=1;" vertex="1" parent="1">
            <mxGeometry x="866.75" y="1000" width="470" height="140" as="geometry" />
          </mxCell>
        </UserObject>
        <mxCell id="4NAa_2LbM7OXufNybj1a-60" value="h_de(64,307,128)是解码器输出的隐藏状态，ht_list 是更新后的隐藏状态列表，用于下一轮迭代" style="text;whiteSpace=wrap;html=1;" vertex="1" parent="1">
          <mxGeometry x="414" y="1020" width="470" height="20" as="geometry" />
        </mxCell>
        <mxCell id="4NAa_2LbM7OXufNybj1a-62" value="输出层转换go(64,307,128)" style="text;whiteSpace=wrap;html=1;" vertex="1" parent="1">
          <mxGeometry x="740" y="1040" width="150" height="20" as="geometry" />
        </mxCell>
        <mxCell id="4NAa_2LbM7OXufNybj1a-63" value="存储预测结果" style="text;whiteSpace=wrap;html=1;" vertex="1" parent="1">
          <mxGeometry x="990" y="1040" width="80" height="30" as="geometry" />
        </mxCell>
        <UserObject label="output = torch.stack(out, dim=1)&lt;div&gt;（64，12，307，1）&lt;/div&gt;" id="4NAa_2LbM7OXufNybj1a-64">
          <mxCell style="text;whiteSpace=wrap;html=1;" vertex="1" parent="1">
            <mxGeometry x="890" y="1150" width="200" height="50" as="geometry" />
          </mxCell>
        </UserObject>
        <mxCell id="4NAa_2LbM7OXufNybj1a-65" value="h_att：是模型记忆单元与查询向量相关性加权的总和，形状为 (B, N, d)，其中 d 是记忆单元的维度。&#xa;query：是 h_t 通过记忆网络的权重矩阵 Wq 投影后的查询向量，用于与记忆单元进行匹配。&#xa;pos 和 neg：分别是与查询向量最相似和次相似的记忆单元，用于对比学习。" style="text;whiteSpace=wrap;html=1;" vertex="1" parent="1">
          <mxGeometry x="1040" y="700" width="560" height="80" as="geometry" />
        </mxCell>
      </root>
    </mxGraphModel>
  </diagram>
</mxfile>
